# xmcd CD database file generated by Grip 3.2.0
# 
# Track frame offsets:
#       150
#       14539
#       23995
#       34646
#       48874
#       62767
#       85947
#       99280
#       110593
#       118259
#       132156
#       146151
#       186129
#       196184
#       210273
#       222885
#       241087
#       250982
#       256965
#       270814
#       284903
#       298918
# 
# Disc length: 4185 seconds
# 
# Revision: 1
# Processed by: cddbd v1.5.1PL0 Copyright (c) Steve Scherf et al.
# Submitted via: Grip 3.2.0
# 
DISCID=46105716
DTITLE=Afro Blues Quintet Plus One - New Directions in Sound
DYEAR=2004
DGENRE=Jazz
TTITLE0=Freaks
TTITLE1=La La La
TTITLE2=Summertime
TTITLE3=Let My People Go
TTITLE4=Jerico
TTITLE5=Monkey Time
TTITLE6=Victims of Chance
TTITLE7=Some Velvet Morning
TTITLE8=Spartacus
TTITLE9=Twilight Thunder
TTITLE10=Down With Downers
TTITLE11=Our Mambo
TTITLE12=3/4-5/4-7/2 (Liquid Landscapes)
TTITLE13=Candie Luv
TTITLE14=Pata Pata
TTITLE15=In Crowd
TTITLE16=Next Plane to London
TTITLE17=Southside Habit
TTITLE18=Mirror Image
TTITLE19=Afro Rock
TTITLE20=Moses
TTITLE21=Evening of the Beast
EXTD=
EXTT0=
EXTT1=
EXTT2=
EXTT3=
EXTT4=
EXTT5=
EXTT6=
EXTT7=
EXTT8=
EXTT9=
EXTT10=
EXTT11=
EXTT12=
EXTT13=
EXTT14=
EXTT15=
EXTT16=
EXTT17=
EXTT18=
EXTT19=
EXTT20=
EXTT21=
PLAYORDER=
